<mxfile host="www.draw.io" modified="2019-11-26T15:37:17.266Z" agent="Mozilla/5.0 (X11; Ubuntu; Linux x86_64; rv:68.0) Gecko/20100101 Firefox/68.0" etag="i606Zs4NecLGJUU0TLeI" version="12.3.1" type="github" pages="1">
  <diagram id="I9IrVg-XSZB7Qn-Kv-cK" name="Page-1">
    <mxGraphModel dx="1564" dy="1430" grid="1" gridSize="10" guides="1" tooltips="1" connect="1" arrows="1" fold="1" page="1" pageScale="1" pageWidth="827" pageHeight="1169" math="0" shadow="0">
      <root>
        <mxCell id="0"/>
        <mxCell id="1" parent="0"/>
        <mxCell id="2ZlXiWUkkiC4Hj5eQH3b-12" value="&lt;div&gt;Solicitud( &lt;u&gt;códigoSolicitud&lt;/u&gt;&lt;span style=&quot;text-decoration: none&quot;&gt;,nombre, apellidos, NIF/CIF, Domicilio, Acreditación de residencia, fecha, estado, codigoParking, movilidadSostenible)&lt;/span&gt;&lt;/div&gt;" style="text;html=1;strokeColor=none;fillColor=none;align=center;verticalAlign=middle;whiteSpace=wrap;rounded=0;" parent="1" vertex="1">
          <mxGeometry x="822.5" y="190" width="1070" height="20" as="geometry"/>
        </mxCell>
        <mxCell id="2ZlXiWUkkiC4Hj5eQH3b-13" value="&lt;div align=&quot;left&quot;&gt;&lt;span style=&quot;text-decoration: none&quot;&gt;Aparcamiento(&lt;/span&gt;&lt;u&gt;códigoParking&lt;/u&gt;&lt;span style=&quot;text-decoration: none&quot;&gt;,&lt;/span&gt;&lt;span style=&quot;text-decoration: none&quot;&gt; numPlazasTotales, numPlazasOcupadas,&lt;/span&gt;&lt;span style=&quot;text-decoration: none&quot;&gt;&amp;nbsp;espacioBicis, espacioVMU, admComerciantes, tarifaV, tarifaM, tarifaA&lt;/span&gt;&lt;span style=&quot;text-decoration: none&quot;&gt;, areaInfluencia)&lt;/span&gt;&lt;/div&gt;" style="text;html=1;resizable=0;points=[];autosize=1;align=left;verticalAlign=top;spacingTop=-4;" parent="1" vertex="1">
          <mxGeometry x="60" y="290" width="980" height="20" as="geometry"/>
        </mxCell>
        <mxCell id="2ZlXiWUkkiC4Hj5eQH3b-14" value="&lt;div align=&quot;left&quot;&gt;&lt;span style=&quot;text-decoration: none&quot;&gt;Abono(&lt;/span&gt;&lt;u&gt;numeroAbono&lt;/u&gt;&lt;span style=&quot;text-decoration: none&quot;&gt;, movSostenible, tipo, códigoPlaza, códigoParking)&lt;/span&gt;&lt;/div&gt;" style="text;html=1;strokeColor=none;fillColor=none;align=center;verticalAlign=middle;whiteSpace=wrap;rounded=0;" parent="1" vertex="1">
          <mxGeometry x="1120" y="740" width="446" height="30" as="geometry"/>
        </mxCell>
        <mxCell id="2ZlXiWUkkiC4Hj5eQH3b-15" value="&lt;span style=&quot;text-decoration: none&quot;&gt;ContratoAbono(fechaInicio,fechaFin,&lt;/span&gt;&lt;u&gt;numeroAbono&lt;/u&gt;&lt;span style=&quot;text-decoration: none&quot;&gt;,&lt;/span&gt;&lt;u&gt;&amp;nbsp;NIF, numContrato&lt;/u&gt;&lt;span style=&quot;text-decoration: none&quot;&gt;)&lt;/span&gt;" style="text;html=1;strokeColor=none;fillColor=none;align=center;verticalAlign=middle;whiteSpace=wrap;rounded=0;" parent="1" vertex="1">
          <mxGeometry x="1150" y="584" width="445" height="20" as="geometry"/>
        </mxCell>
        <mxCell id="2ZlXiWUkkiC4Hj5eQH3b-16" value="&lt;p style=&quot;margin-bottom: 0cm ; line-height: 100%&quot; align=&quot;left&quot;&gt;&lt;span style=&quot;text-decoration: none&quot;&gt;PlazaResidencial(coste, &lt;/span&gt;&lt;u&gt;códigoPlaza&lt;/u&gt;&lt;span style=&quot;text-decoration: none&quot;&gt;, recargaElec, personaEspecial, deshabilitado, &lt;/span&gt;&lt;u&gt;codigoParking&lt;/u&gt;&lt;span style=&quot;text-decoration: none&quot;&gt;)&lt;/span&gt;&lt;/p&gt;" style="text;html=1;strokeColor=none;fillColor=none;align=center;verticalAlign=middle;whiteSpace=wrap;rounded=0;" parent="1" vertex="1">
          <mxGeometry x="10" y="430" width="620" height="20" as="geometry"/>
        </mxCell>
        <mxCell id="2ZlXiWUkkiC4Hj5eQH3b-21" value="&lt;p style=&quot;margin-bottom: 0cm ; line-height: 100%&quot;&gt;&lt;span style=&quot;text-decoration: none&quot;&gt;PlazaRotacional(disuasorio, &lt;/span&gt;&lt;u&gt;códigoPlaza&lt;/u&gt;&lt;span style=&quot;text-decoration: none&quot;&gt;, recargaElec, personaEspecial, deshabilitado, &lt;/span&gt;&lt;u&gt;codigoParking&lt;/u&gt;&lt;span style=&quot;text-decoration: none&quot;&gt;)&lt;/span&gt;&lt;/p&gt;" style="text;html=1;strokeColor=none;fillColor=none;align=center;verticalAlign=middle;whiteSpace=wrap;rounded=0;" parent="1" vertex="1">
          <mxGeometry x="60" y="560" width="670" height="10" as="geometry"/>
        </mxCell>
        <mxCell id="2ZlXiWUkkiC4Hj5eQH3b-22" value="&lt;span style=&quot;text-decoration: none&quot;&gt;Usuario(&lt;/span&gt;&lt;span style=&quot;text-decoration: none&quot;&gt;&lt;u&gt;NIF/CIF&lt;/u&gt;, residente, fianza, numCuotasNoPagadas, PMR)&lt;/span&gt;" style="text;html=1;strokeColor=none;fillColor=none;align=center;verticalAlign=middle;whiteSpace=wrap;rounded=0;" parent="1" vertex="1">
          <mxGeometry x="1010" y="880" width="490" height="20" as="geometry"/>
        </mxCell>
        <mxCell id="2ZlXiWUkkiC4Hj5eQH3b-23" value="&lt;p style=&quot;margin-bottom: 0cm ; line-height: 100%&quot;&gt;&lt;span style=&quot;text-decoration: none&quot;&gt;Trabajador(&lt;/span&gt;&lt;u&gt;NIF&lt;/u&gt;&lt;span style=&quot;text-decoration: none&quot;&gt;,gestor)&lt;/span&gt;&lt;/p&gt;" style="text;html=1;strokeColor=none;fillColor=none;align=center;verticalAlign=middle;whiteSpace=wrap;rounded=0;" parent="1" vertex="1">
          <mxGeometry x="733" y="30" width="300" height="10" as="geometry"/>
        </mxCell>
        <mxCell id="2ZlXiWUkkiC4Hj5eQH3b-24" value="&lt;p style=&quot;margin-bottom: 0cm ; line-height: 100%&quot;&gt;&lt;span style=&quot;text-decoration: none&quot;&gt;Ticket(&lt;/span&gt;&lt;u&gt;horaE&lt;/u&gt;&lt;span style=&quot;text-decoration: none&quot;&gt;, &lt;/span&gt;&lt;u&gt;matricula&lt;/u&gt;&lt;span style=&quot;text-decoration: none&quot;&gt;, &lt;/span&gt;&lt;u&gt;fecha&lt;/u&gt;&lt;span style=&quot;text-decoration: none&quot;&gt;, codigoParking, precio, horaS)&lt;/span&gt;&lt;/p&gt;" style="text;html=1;strokeColor=none;fillColor=none;align=center;verticalAlign=middle;whiteSpace=wrap;rounded=0;" parent="1" vertex="1">
          <mxGeometry x="660" y="660" width="393" height="10" as="geometry"/>
        </mxCell>
        <mxCell id="2ZlXiWUkkiC4Hj5eQH3b-26" value="&lt;p style=&quot;margin-bottom: 0cm ; line-height: 100%&quot;&gt;&lt;span style=&quot;text-decoration: none&quot;&gt;Valoracion(&lt;/span&gt;&lt;u&gt;codigoV&lt;/u&gt;&lt;span style=&quot;text-decoration: none&quot;&gt;, &lt;/span&gt;&lt;u&gt;codigoParking&lt;/u&gt;&lt;span style=&quot;text-decoration: none&quot;&gt;, descripcion)&lt;/span&gt;&lt;/p&gt;" style="text;html=1;strokeColor=none;fillColor=none;align=center;verticalAlign=middle;whiteSpace=wrap;rounded=0;" parent="1" vertex="1">
          <mxGeometry x="45" y="40" width="335" height="10" as="geometry"/>
        </mxCell>
        <mxCell id="2ZlXiWUkkiC4Hj5eQH3b-27" value="&lt;p style=&quot;margin-bottom: 0cm ; line-height: 100%&quot;&gt;&lt;span style=&quot;text-decoration: none&quot;&gt;Vehiculo(&lt;/span&gt;&lt;u&gt;matricula&lt;/u&gt;&lt;span style=&quot;text-decoration: none&quot;&gt;, modelo, documentoAcred, distAmbiental, tipo&lt;/span&gt;&lt;span style=&quot;text-decoration: none&quot;&gt;)&lt;/span&gt;&lt;/p&gt;" style="text;html=1;strokeColor=none;fillColor=none;align=center;verticalAlign=middle;whiteSpace=wrap;rounded=0;" parent="1" vertex="1">
          <mxGeometry x="210" y="750" width="420" height="10" as="geometry"/>
        </mxCell>
        <mxCell id="2ZlXiWUkkiC4Hj5eQH3b-28" value="&lt;span style=&quot;text-decoration: none&quot;&gt;Referencia&lt;/span&gt;&lt;span style=&quot;text-decoration: none&quot;&gt;(&lt;/span&gt;&lt;u&gt;matricula&lt;/u&gt;&lt;span style=&quot;text-decoration: none&quot;&gt;,&lt;/span&gt;&lt;u&gt; numeroAbono, &lt;/u&gt;fechaInicio, fechaFin&lt;span style=&quot;text-decoration: none&quot;&gt;)&lt;/span&gt;" style="text;html=1;strokeColor=none;fillColor=none;align=center;verticalAlign=middle;whiteSpace=wrap;rounded=0;" parent="1" vertex="1">
          <mxGeometry x="660" y="890" width="373" height="20" as="geometry"/>
        </mxCell>
        <mxCell id="G0HUlT2vcON83zbuiVgl-4" value="" style="endArrow=classic;html=1;" parent="1" edge="1">
          <mxGeometry width="50" height="50" relative="1" as="geometry">
            <mxPoint x="530" y="160" as="sourcePoint"/>
            <mxPoint x="190" y="280" as="targetPoint"/>
            <Array as="points">
              <mxPoint x="530" y="160"/>
              <mxPoint x="530" y="190"/>
              <mxPoint x="530" y="230"/>
              <mxPoint x="430" y="230"/>
              <mxPoint x="280" y="230"/>
              <mxPoint x="190" y="230"/>
              <mxPoint x="190" y="260"/>
            </Array>
          </mxGeometry>
        </mxCell>
        <mxCell id="G0HUlT2vcON83zbuiVgl-14" value="" style="endArrow=classic;html=1;" parent="1" edge="1">
          <mxGeometry width="50" height="50" relative="1" as="geometry">
            <mxPoint x="220" y="70" as="sourcePoint"/>
            <mxPoint x="160" y="280" as="targetPoint"/>
            <Array as="points">
              <mxPoint x="220" y="90"/>
              <mxPoint x="220" y="180"/>
              <mxPoint x="160" y="180"/>
              <mxPoint x="160" y="230"/>
              <mxPoint x="160" y="250"/>
            </Array>
          </mxGeometry>
        </mxCell>
        <mxCell id="G0HUlT2vcON83zbuiVgl-17" value="Incidencia(NIF,&lt;u&gt;código&lt;/u&gt;,descripción,fecha)" style="text;html=1;strokeColor=none;fillColor=none;align=center;verticalAlign=middle;whiteSpace=wrap;rounded=0;" parent="1" vertex="1">
          <mxGeometry x="900" y="490" width="40" height="20" as="geometry"/>
        </mxCell>
        <mxCell id="G0HUlT2vcON83zbuiVgl-18" value="" style="endArrow=classic;html=1;" parent="1" edge="1">
          <mxGeometry width="50" height="50" relative="1" as="geometry">
            <mxPoint x="1480" y="580" as="sourcePoint"/>
            <mxPoint x="1130" y="450" as="targetPoint"/>
            <Array as="points">
              <mxPoint x="1480" y="470"/>
              <mxPoint x="1130" y="470"/>
            </Array>
          </mxGeometry>
        </mxCell>
        <mxCell id="azdm0dHMtsbySCDP1iI7-3" value="" style="endArrow=classic;html=1;" parent="1" edge="1">
          <mxGeometry width="50" height="50" relative="1" as="geometry">
            <mxPoint x="494" y="130" as="sourcePoint"/>
            <mxPoint x="890" y="60" as="targetPoint"/>
            <Array as="points">
              <mxPoint x="494" y="90"/>
              <mxPoint x="890" y="90"/>
              <mxPoint x="890" y="70"/>
            </Array>
          </mxGeometry>
        </mxCell>
        <mxCell id="azdm0dHMtsbySCDP1iI7-4" value="ContratoLaboral(NIF&lt;u&gt;,codigoParking,&lt;/u&gt;fechaInicio,fechaFin,&lt;u&gt;numContrato&lt;/u&gt;)" style="text;html=1;strokeColor=none;fillColor=none;align=center;verticalAlign=middle;whiteSpace=wrap;rounded=0;" parent="1" vertex="1">
          <mxGeometry x="390" y="130" width="390" height="20" as="geometry"/>
        </mxCell>
        <mxCell id="azdm0dHMtsbySCDP1iI7-6" value="" style="endArrow=classic;html=1;exitX=0.729;exitY=1.15;exitDx=0;exitDy=0;exitPerimeter=0;" parent="1" edge="1" source="2ZlXiWUkkiC4Hj5eQH3b-12">
          <mxGeometry width="50" height="50" relative="1" as="geometry">
            <mxPoint x="1590" y="260" as="sourcePoint"/>
            <mxPoint x="210" y="280" as="targetPoint"/>
            <Array as="points">
              <mxPoint x="1603" y="260"/>
              <mxPoint x="1550" y="260"/>
              <mxPoint x="1160" y="260"/>
              <mxPoint x="210" y="260"/>
            </Array>
          </mxGeometry>
        </mxCell>
        <mxCell id="HVN92zyPnA6csdTqlTCv-4" value="" style="endArrow=classic;html=1;exitX=0.892;exitY=-0.149;exitDx=0;exitDy=0;exitPerimeter=0;" parent="1" source="2ZlXiWUkkiC4Hj5eQH3b-16" edge="1">
          <mxGeometry width="50" height="50" relative="1" as="geometry">
            <mxPoint x="460" y="400" as="sourcePoint"/>
            <mxPoint x="170" y="320" as="targetPoint"/>
            <Array as="points">
              <mxPoint x="563" y="360"/>
              <mxPoint x="170" y="360"/>
            </Array>
          </mxGeometry>
        </mxCell>
        <mxCell id="HVN92zyPnA6csdTqlTCv-5" value="" style="endArrow=classic;html=1;" parent="1" edge="1">
          <mxGeometry width="50" height="50" relative="1" as="geometry">
            <mxPoint x="630" y="550" as="sourcePoint"/>
            <mxPoint x="220" y="320" as="targetPoint"/>
            <Array as="points">
              <mxPoint x="630" y="340"/>
              <mxPoint x="220" y="340"/>
            </Array>
          </mxGeometry>
        </mxCell>
        <mxCell id="HVN92zyPnA6csdTqlTCv-6" value="" style="endArrow=classic;html=1;" parent="1" edge="1">
          <mxGeometry width="50" height="50" relative="1" as="geometry">
            <mxPoint x="780" y="880" as="sourcePoint"/>
            <mxPoint x="310" y="780" as="targetPoint"/>
            <Array as="points">
              <mxPoint x="780" y="810"/>
              <mxPoint x="310" y="810"/>
            </Array>
          </mxGeometry>
        </mxCell>
        <mxCell id="HVN92zyPnA6csdTqlTCv-7" value="" style="endArrow=classic;html=1;" parent="1" edge="1">
          <mxGeometry width="50" height="50" relative="1" as="geometry">
            <mxPoint x="860" y="880" as="sourcePoint"/>
            <mxPoint x="1240" y="780" as="targetPoint"/>
            <Array as="points">
              <mxPoint x="860" y="820"/>
              <mxPoint x="1240" y="820"/>
            </Array>
          </mxGeometry>
        </mxCell>
        <mxCell id="HVN92zyPnA6csdTqlTCv-8" value="" style="endArrow=classic;html=1;" parent="1" edge="1">
          <mxGeometry width="50" height="50" relative="1" as="geometry">
            <mxPoint x="1430" y="610" as="sourcePoint"/>
            <mxPoint x="1270" y="730" as="targetPoint"/>
            <Array as="points">
              <mxPoint x="1430" y="660"/>
              <mxPoint x="1270" y="660"/>
            </Array>
          </mxGeometry>
        </mxCell>
        <mxCell id="HVN92zyPnA6csdTqlTCv-9" value="" style="endArrow=classic;html=1;" parent="1" edge="1">
          <mxGeometry width="50" height="50" relative="1" as="geometry">
            <mxPoint x="790" y="690" as="sourcePoint"/>
            <mxPoint x="310" y="740" as="targetPoint"/>
            <Array as="points">
              <mxPoint x="790" y="710"/>
              <mxPoint x="310" y="710"/>
            </Array>
          </mxGeometry>
        </mxCell>
        <mxCell id="HVN92zyPnA6csdTqlTCv-10" value="" style="endArrow=classic;html=1;" parent="1" edge="1">
          <mxGeometry width="50" height="50" relative="1" as="geometry">
            <mxPoint x="880" y="480" as="sourcePoint"/>
            <mxPoint x="1110" y="450" as="targetPoint"/>
            <Array as="points">
              <mxPoint x="880" y="470"/>
              <mxPoint x="1110" y="470"/>
            </Array>
          </mxGeometry>
        </mxCell>
        <mxCell id="HVN92zyPnA6csdTqlTCv-12" value="" style="endArrow=classic;html=1;" parent="1" edge="1">
          <mxGeometry width="50" height="50" relative="1" as="geometry">
            <mxPoint x="1120" y="220" as="sourcePoint"/>
            <mxPoint x="1010" y="410" as="targetPoint"/>
            <Array as="points">
              <mxPoint x="1120" y="250"/>
              <mxPoint x="1040" y="250"/>
              <mxPoint x="1040" y="360"/>
              <mxPoint x="1010" y="360"/>
            </Array>
          </mxGeometry>
        </mxCell>
        <mxCell id="HVN92zyPnA6csdTqlTCv-13" value="" style="endArrow=classic;html=1;" parent="1" edge="1">
          <mxGeometry width="50" height="50" relative="1" as="geometry">
            <mxPoint x="1156" y="230" as="sourcePoint"/>
            <mxPoint x="1090" y="410" as="targetPoint"/>
            <Array as="points">
              <mxPoint x="1156" y="270"/>
              <mxPoint x="1090" y="270"/>
            </Array>
          </mxGeometry>
        </mxCell>
        <mxCell id="HVN92zyPnA6csdTqlTCv-14" value="" style="endArrow=classic;html=1;" parent="1" edge="1">
          <mxGeometry width="50" height="50" relative="1" as="geometry">
            <mxPoint x="1220" y="220" as="sourcePoint"/>
            <mxPoint x="1120" y="400" as="targetPoint"/>
            <Array as="points">
              <mxPoint x="1220" y="280"/>
              <mxPoint x="1120" y="280"/>
            </Array>
          </mxGeometry>
        </mxCell>
        <mxCell id="HVN92zyPnA6csdTqlTCv-15" value="" style="endArrow=classic;html=1;" parent="1" edge="1">
          <mxGeometry width="50" height="50" relative="1" as="geometry">
            <mxPoint x="1280" y="220" as="sourcePoint"/>
            <mxPoint x="1160" y="410" as="targetPoint"/>
            <Array as="points">
              <mxPoint x="1280" y="290"/>
              <mxPoint x="1160" y="290"/>
            </Array>
          </mxGeometry>
        </mxCell>
        <mxCell id="HVN92zyPnA6csdTqlTCv-23" value="" style="endArrow=classic;html=1;" parent="1" edge="1">
          <mxGeometry width="50" height="50" relative="1" as="geometry">
            <mxPoint x="900" y="650" as="sourcePoint"/>
            <mxPoint x="241.25" y="320" as="targetPoint"/>
            <Array as="points">
              <mxPoint x="900" y="620"/>
              <mxPoint x="730" y="620"/>
              <mxPoint x="730" y="590"/>
              <mxPoint x="730" y="320"/>
            </Array>
          </mxGeometry>
        </mxCell>
        <mxCell id="HVN92zyPnA6csdTqlTCv-24" value="" style="endArrow=classic;html=1;" parent="1" edge="1">
          <mxGeometry width="50" height="50" relative="1" as="geometry">
            <mxPoint x="1420" y="730" as="sourcePoint"/>
            <mxPoint x="190" y="470" as="targetPoint"/>
            <Array as="points">
              <mxPoint x="1420" y="680"/>
              <mxPoint x="1040" y="680"/>
              <mxPoint x="1040" y="540"/>
              <mxPoint x="680" y="540"/>
              <mxPoint x="680" y="500"/>
              <mxPoint x="190" y="500"/>
            </Array>
          </mxGeometry>
        </mxCell>
        <mxCell id="HVN92zyPnA6csdTqlTCv-25" value="" style="endArrow=classic;html=1;exitX=0.875;exitY=0;exitDx=0;exitDy=0;exitPerimeter=0;" parent="1" source="2ZlXiWUkkiC4Hj5eQH3b-14" edge="1">
          <mxGeometry width="50" height="50" relative="1" as="geometry">
            <mxPoint x="260" y="420" as="sourcePoint"/>
            <mxPoint x="200" y="320" as="targetPoint"/>
            <Array as="points">
              <mxPoint x="1510" y="670"/>
              <mxPoint x="1620" y="670"/>
              <mxPoint x="1620" y="370"/>
              <mxPoint x="200" y="380"/>
            </Array>
          </mxGeometry>
        </mxCell>
        <mxCell id="PRofn_bKHYjtpdTf7ijA-2" value="Persona(nombre, apellidos, &lt;u&gt;NIF/CIF&lt;/u&gt;, domicilio)" style="text;html=1;align=center;verticalAlign=middle;resizable=0;points=[];;autosize=1;" vertex="1" parent="1">
          <mxGeometry x="920" y="420" width="300" height="20" as="geometry"/>
        </mxCell>
        <mxCell id="PRofn_bKHYjtpdTf7ijA-3" value="" style="endArrow=classic;html=1;" edge="1" parent="1">
          <mxGeometry width="50" height="50" relative="1" as="geometry">
            <mxPoint x="900" y="70" as="sourcePoint"/>
            <mxPoint x="1100" y="450" as="targetPoint"/>
            <Array as="points">
              <mxPoint x="900" y="450"/>
            </Array>
          </mxGeometry>
        </mxCell>
        <mxCell id="PRofn_bKHYjtpdTf7ijA-6" value="" style="endArrow=classic;html=1;" edge="1" parent="1">
          <mxGeometry width="50" height="50" relative="1" as="geometry">
            <mxPoint x="1120" y="870" as="sourcePoint"/>
            <mxPoint x="1120" y="460" as="targetPoint"/>
          </mxGeometry>
        </mxCell>
      </root>
    </mxGraphModel>
  </diagram>
</mxfile>
